<svg width="24" height="26" viewBox="0 0 24 26" fill="none" xmlns="http://www.w3.org/2000/svg">
<path fill-rule="evenodd" clip-rule="evenodd" d="M12 2.586L24 14.586V23C24 23.7956 23.6839 24.5587 23.1213 25.1213C22.5587 25.6839 21.7956 26 21 26H3C2.20435 26 1.44129 25.6839 0.87868 25.1213C0.316071 24.5587 0 23.7956 0 23V14.586L12 2.586ZM22 1V8L18 4V1C18 0.734784 18.1054 0.48043 18.2929 0.292893C18.4804 0.105357 18.7348 0 19 0H21C21.2652 0 21.5196 0.105357 21.7071 0.292893C21.8946 0.48043 22 0.734784 22 1Z" fill="#064328"/>
</svg>
